<svg xmlns="http://www.w3.org/2000/svg" viewBox="0 0 165.09 110.76"><defs><style>.cls-1{fill:#231f20;}</style></defs><g id="Layer_2" data-name="Layer 2"><g id="Layer_1-2" data-name="Layer 1"><path class="cls-1" d="M21.71,77.62l-.24.92-.93-.25a5.1,5.1,0,0,0-2.64,9.85l.93.25L28.67,91h0l2.64-9.84h0l.25-.92a5.1,5.1,0,0,0-9.85-2.64Z"/><circle class="cls-1" cx="139.55" cy="83.45" r="3.37" transform="translate(15.87 189) rotate(-71.36)"/><circle class="cls-1" cx="141.07" cy="68.38" r="3.37" transform="translate(-7.04 119.78) rotate(-45)"/><path class="cls-1" d="M155.78,75.19a3.37,3.37,0,1,0,.68,4.71A3.36,3.36,0,0,0,155.78,75.19Z"/><path class="cls-1" d="M77.32,16c5.38,4.28,10.24-.11,10.4-.27a4.84,4.84,0,0,0,1.46-3.43c-.11-3.42-3-3.48-2.69-3.32s1.74,2.19-.31,2.26c-1.29.05-1.66-1-1.76-1.73a3.83,3.83,0,0,1,0-1.17c1.16-6.93-4-8.36-4-8.36C81.81,3.16,79,5.58,79,5.58S71.94,11.74,77.32,16Z"/><path class="cls-1" d="M137.51,41.26a15.13,15.13,0,0,0-20.74-8.57A17.4,17.4,0,0,0,108,41.93a17.1,17.1,0,0,0,2.4,17.39l1.27,2.91a1.63,1.63,0,0,1-.09,1.43l-.83,1.5,2.83.25.27-.49a4.25,4.25,0,0,0,.21-3.7l-.07-.15,5.45,2.25-.06,0A4.2,4.2,0,0,0,117,65.75l2.83.3a1.74,1.74,0,0,1,.46-.3l2.93-1.11a17.12,17.12,0,0,0,14-10.63A17.35,17.35,0,0,0,137.51,41.26ZM134.82,53a14.5,14.5,0,0,1-11.69,9l-.75-.31-10.09-4.17a14.49,14.49,0,0,1-1.91-14.65,14.76,14.76,0,0,1,7.47-7.87,12.54,12.54,0,0,1,17.23,7.11A14.73,14.73,0,0,1,134.82,53Z"/><path class="cls-1" d="M40.2,85.56a6.26,6.26,0,0,1-3-4.51c-.08-.45-.19-1.17-.33-2.18s-.24-1.74-.29-2.21a5.72,5.72,0,0,1,1.72-5,10,10,0,0,1,6-2.45,12.64,12.64,0,0,1,4.67.24,7.3,7.3,0,0,1,3.17,1.63,3.89,3.89,0,0,1,1.29,2.3.5.5,0,0,1-.14.39.61.61,0,0,1-.41.19l-4.18.41a.82.82,0,0,1-.43,0A1,1,0,0,1,48,74.1a2.84,2.84,0,0,0-1.17-1,3.56,3.56,0,0,0-2.07-.25c-2.1.24-3.07,1.34-2.89,3.27,0,.45.11,1.14.23,2.07s.21,1.62.29,2.09c.33,2,1.53,2.9,3.59,2.66a3.94,3.94,0,0,0,2.35-1A2.54,2.54,0,0,0,49,79.71l0-.43-2.37.26a.71.71,0,0,1-.51-.13.55.55,0,0,1-.25-.42l-.22-1.87a.58.58,0,0,1,.15-.47.74.74,0,0,1,.48-.24c2.27-.25,4.54-.49,6.82-.7a.73.73,0,0,1,.51.14.55.55,0,0,1,.24.43l.26,2.79a6,6,0,0,1-.73,3.63,6.67,6.67,0,0,1-2.7,2.55,11.75,11.75,0,0,1-4.29,1.26A9.7,9.7,0,0,1,40.2,85.56Z"/><path class="cls-1" d="M60.91,84.75a.44.44,0,0,1-.19-.34.51.51,0,0,1,0-.22q2.49-7.95,5.3-15.86a1.07,1.07,0,0,1,1.06-.76c1.43-.07,2.86-.13,4.3-.18a1.06,1.06,0,0,1,1.12.66Q76,75.7,79.12,83.42a.61.61,0,0,1,0,.22A.47.47,0,0,1,79,84a.52.52,0,0,1-.38.16l-3.4.07a.93.93,0,0,1-.91-.51c-.33-.77-.67-1.54-1-2.31-2.31.07-4.61.17-6.92.29l-.81,2.39a.91.91,0,0,1-.86.58l-3.4.22A.53.53,0,0,1,60.91,84.75ZM67.3,78l4.75-.2c-.86-2-1.74-4-2.63-6.07Q68.34,74.86,67.3,78Z"/><path class="cls-1" d="M86.58,84a.55.55,0,0,1-.19-.44q.06-7.84.14-15.7a.57.57,0,0,1,.21-.45.76.76,0,0,1,.51-.18l3.11,0a1.05,1.05,0,0,1,1,.56q2.28,3.78,4.45,7.59,2.46-3.65,5-7.24a1,1,0,0,1,1-.48c1,0,2.07.11,3.11.18a.74.74,0,0,1,.5.21.62.62,0,0,1,.17.46l-1,15.68a.53.53,0,0,1-.23.42.68.68,0,0,1-.49.14c-1.11-.07-2.21-.14-3.32-.19a.66.66,0,0,1-.45-.21.56.56,0,0,1-.17-.43q.23-4.41.44-8.8c-1,1.54-2.08,3.1-3.1,4.65a1.06,1.06,0,0,1-1,.52l-1.43,0a1.12,1.12,0,0,1-.91-.59q-1.35-2.44-2.73-4.87l-.21,8.81a.54.54,0,0,1-.2.43.76.76,0,0,1-.49.16c-1.1,0-2.2,0-3.3-.06A.67.67,0,0,1,86.58,84Z"/><path class="cls-1" d="M113.54,85.33a.53.53,0,0,1-.15-.44q.72-7.81,1.45-15.64a.58.58,0,0,1,.23-.43.73.73,0,0,1,.51-.13q6.48.61,12.94,1.48a.75.75,0,0,1,.48.25.57.57,0,0,1,.15.47l-.33,2.37a.54.54,0,0,1-.26.41.82.82,0,0,1-.52.1q-4.27-.57-8.57-1l-.33,3.06q4,.42,7.9.95a.67.67,0,0,1,.47.24.55.55,0,0,1,.14.47c-.09.73-.19,1.46-.29,2.19a.56.56,0,0,1-.26.41.75.75,0,0,1-.51.12q-3.9-.53-7.82-.94l-.33,3.13c2.84.31,5.69.65,8.53,1a.73.73,0,0,1,.46.25.56.56,0,0,1,.13.47c-.11.79-.21,1.58-.32,2.37a.57.57,0,0,1-.26.41.7.7,0,0,1-.5.1q-6.24-.84-12.5-1.43A.66.66,0,0,1,113.54,85.33Z"/><path class="cls-1" d="M36.82,110.64a.6.6,0,0,1-.25-.39q-1.23-7.75-2.45-15.52a.6.6,0,0,1,.1-.47.67.67,0,0,1,.43-.25l2.88-.43a.94.94,0,0,1,.93.33q3.65,4,7.13,8.15c-.37-2.93-.73-5.86-1.1-8.79a.61.61,0,0,1,.13-.47.66.66,0,0,1,.43-.24l3.25-.38a.68.68,0,0,1,.48.13.62.62,0,0,1,.22.43q.87,7.8,1.72,15.59a.61.61,0,0,1-.12.46.56.56,0,0,1-.42.23l-2.73.32a.9.9,0,0,1-.88-.36q-3.37-3.95-6.91-7.81c.4,2.81.81,5.62,1.21,8.43a.54.54,0,0,1-.12.46.63.63,0,0,1-.42.23l-3.06.46A.57.57,0,0,1,36.82,110.64Z"/><path class="cls-1" d="M59.09,108a.62.62,0,0,1-.22-.41L57.58,91.89a.56.56,0,0,1,.16-.45.7.7,0,0,1,.43-.21L61.84,91a.64.64,0,0,1,.47.14.57.57,0,0,1,.21.42q.52,7.85,1,15.7a.58.58,0,0,1-.14.43.56.56,0,0,1-.42.21l-3.47.26A.56.56,0,0,1,59.09,108Z"/><path class="cls-1" d="M73.31,105.87A6.48,6.48,0,0,1,71,101.08c0-.45-.08-1.19-.12-2.2s-.06-1.76-.06-2.23a5.87,5.87,0,0,1,2-4.81A8.9,8.9,0,0,1,78.61,90a11,11,0,0,1,4.3.72,6.56,6.56,0,0,1,2.78,1.93,4,4,0,0,1,1,2.41.55.55,0,0,1-.56.53H82.2a.75.75,0,0,1-.39-.08,1,1,0,0,1-.26-.25,3,3,0,0,0-1-1.16,3.22,3.22,0,0,0-1.89-.46,2.68,2.68,0,0,0-3,3c0,.45,0,1.15,0,2.08s0,1.64.08,2.11q.18,3.06,3.07,3a3.52,3.52,0,0,0,2.26-.73,2.62,2.62,0,0,0,.82-2.14v-.43l-2.21,0a.63.63,0,0,1-.46-.18.58.58,0,0,1-.19-.44l0-1.89a.61.61,0,0,1,.18-.45.64.64,0,0,1,.46-.19c2.13,0,4.25,0,6.38,0a.62.62,0,0,1,.64.63l0,2.81A6.1,6.1,0,0,1,83,106.62a10.48,10.48,0,0,1-4.08.82A8.45,8.45,0,0,1,73.31,105.87Z"/><path class="cls-1" d="M94.36,107.19a.63.63,0,0,1-.16-.44q.28-7.86.56-15.7a.59.59,0,0,1,.2-.44.6.6,0,0,1,.47-.17l3.51.15a.68.68,0,0,1,.47.21.6.6,0,0,1,.17.46L99.28,97q3,.15,5.93.36c.14-1.9.27-3.81.41-5.72a.55.55,0,0,1,.22-.43.68.68,0,0,1,.48-.15c1.17.08,2.33.17,3.49.27a.69.69,0,0,1,.46.22.57.57,0,0,1,.15.47q-.66,7.81-1.34,15.65a.52.52,0,0,1-.22.41.62.62,0,0,1-.46.14c-1.1-.1-2.2-.18-3.3-.26a.62.62,0,0,1-.43-.2.52.52,0,0,1-.15-.45q.2-3,.41-5.91-2.93-.21-5.85-.36l-.3,5.92a.58.58,0,0,1-.21.43.6.6,0,0,1-.45.15q-1.66-.09-3.33-.15A.59.59,0,0,1,94.36,107.19Z"/><path class="cls-1" d="M121.09,109.36a.57.57,0,0,1-.13-.46q.78-6.15,1.55-12.29c-1.48-.19-3-.37-4.44-.53a.69.69,0,0,1-.45-.22.58.58,0,0,1-.14-.46c.1-.89.2-1.79.29-2.69a.57.57,0,0,1,.24-.42.67.67,0,0,1,.5-.13q6.93.77,13.84,1.85a.68.68,0,0,1,.45.25.58.58,0,0,1,.12.47c-.14.9-.29,1.79-.43,2.68a.52.52,0,0,1-.25.4.7.7,0,0,1-.49.1c-1.48-.23-2.95-.45-4.43-.66l-1.74,12.27a.53.53,0,0,1-.24.4.64.64,0,0,1-.47.11q-1.68-.24-3.36-.45A.67.67,0,0,1,121.09,109.36Z"/><path class="cls-1" d="M33,103.4l-7.36,4.25a3.71,3.71,0,0,1-5.06-1.35L3.09,76.07A3.7,3.7,0,0,1,4.45,71l19-11a3.79,3.79,0,0,1,1.85-.49,3.89,3.89,0,0,1,1,.12,3.67,3.67,0,0,1,2.25,1.73l5.94,10.29a7.69,7.69,0,0,1,1.76-2.14L30.76,60.1a6.31,6.31,0,0,0-8.6-2.31l-19,11a6.3,6.3,0,0,0-2.3,8.6L18.3,107.59a6.22,6.22,0,0,0,3.82,2.93,6.11,6.11,0,0,0,1.64.22,6.26,6.26,0,0,0,3.14-.84l6.61-3.82C33.33,105.18,33.14,104.28,33,103.4Z"/><path class="cls-1" d="M38.22,49.63l-4.47,1.24,2.14,7.69,4.88-1.35a99,99,0,0,1,.07,10.28L43.93,67a101,101,0,0,0-.18-10.43l4.19-1.16a110.53,110.53,0,0,0,6.29,10.28c1.13-.13,2.3-.25,3.49-.37a104.84,104.84,0,0,1-6.9-10.91l4.84-1.34-2.13-7.7-4.47,1.24a8.43,8.43,0,1,0-10.84,3Zm13.22-.55L52,51,38,54.87,37.45,53ZM40.52,36.87a5.63,5.63,0,0,1,1.45-.2,5.44,5.44,0,0,1,5.23,4,5.44,5.44,0,0,1-3.78,6.68,5.43,5.43,0,0,1-2.9-10.46Z"/><path class="cls-1" d="M165,75.15A6.29,6.29,0,0,0,162.57,71L145,57.86a6.3,6.3,0,0,0-8.81,1.27l-6.4,8.55a5.42,5.42,0,0,1,2,1.6l6.44-8.6a3.66,3.66,0,0,1,2.43-1.45,4.9,4.9,0,0,1,.54,0,3.72,3.72,0,0,1,2.21.74L161,73.08a3.72,3.72,0,0,1,.74,5.19l-20.91,27.94a3.7,3.7,0,0,1-5.18.75l-1.09-.81c-.14,1-.27,1.93-.41,2.92a6.24,6.24,0,0,0,3.7,1.22,5.49,5.49,0,0,0,.91-.07,6.25,6.25,0,0,0,4.15-2.46l20.91-27.94A6.3,6.3,0,0,0,165,75.15Z"/><path class="cls-1" d="M140.25,95.94a3.35,3.35,0,0,0-4.25.18c-.19,1.28-.39,2.73-.62,4.29a3.48,3.48,0,0,0,.84.92,3.37,3.37,0,0,0,4-5.39Z"/><path class="cls-1" d="M69.67,48.26A14.5,14.5,0,0,0,77,54.52l-1.07,9.57,3-.08.94-8.38h4.67L85.45,64H86l2.51,0-1.07-9.48a14.56,14.56,0,0,0,7.29-6.26l9.16-9.17a5,5,0,0,0,1.48-3.56v-5a3.4,3.4,0,0,0-3.4-3.4h-5.3V24.65A2.39,2.39,0,0,0,95.88,23c-1.69-1.71-6.21-2.58-13.43-2.58-11.91,0-14.58,2.23-14.72,4.11v2.67H62.42a3.4,3.4,0,0,0-3.4,3.4V35.3a5.61,5.61,0,0,0,1.64,4Zm27-18.08h5.3a.4.4,0,0,1,.4.4v5a2,2,0,0,1-.6,1.44l-5.1,5.11ZM70.73,25.07c.54-.4,3-1.67,11.72-1.67,8.44,0,10.7,1.23,11.19,1.6V41.06a11.46,11.46,0,0,1-22.91,0ZM62,30.58a.4.4,0,0,1,.4-.4h5.3v11.9l-4.94-4.94A2.66,2.66,0,0,1,62,35.3Z"/></g></g></svg>